# AST/ASF file generated using VICON BodyLanguage
# -----------------------------------------------
:version 1.10
:name VICON
:units
  mass 1.0
  length 0.45
  angle deg
:documentation
   .ast/.asf automatically generated from VICON data using
   VICON BodyBuilder and BodyLanguage model FoxedUp or BRILLIANT.MOD
:root
   order TX TY TZ RX RY RZ
   axis XYZ
   position 0 0 0  
   orientation 0 0 0 
:bonedata
  begin
     id 1 
     name lhipjoint
     direction 0.576517 -0.752066 0.319413 
     length 2.45433 
     axis 0 0 0  XYZ
  end
  begin
     id 2 
     name lfemur
     direction 0.34202 -0.939693 0  
     length 7.54459  
     axis 0 0 20  XYZ
    dof rx ry rz
    limits (-160.0 20.0)
           (-70.0 70.0)
           (-60.0 70.0)
  end
  begin
     id 3 
     name ltibia
     direction 0.34202 -0.939693 0   
     length 7.73986   
     axis 0 0 20   XYZ
    dof rx
    limits (-10.0 170.0)
  end
  begin
     id 4 
     name lfoot
     direction 0.090693 -0.249177 0.964202   
     length 2.28437   
     axis -90 7.62852e-016 20   XYZ
    dof rx rz
    limits (-45.0 90.0)
           (-70.0 20.0)
  end
  begin
     id 5 
     name ltoes
     direction 1.5356e-011 -4.21928e-011 1   
     length 1.14243   
     axis -90 7.62852e-016 20   XYZ
    dof rx
    limits (-90.0 20.0)
  end
  begin
     id 6 
     name rhipjoint
     direction -0.573937 -0.753736 0.320122   
     length 2.44889  
     axis 0 0 0  XYZ 
  end
  begin
     id 7 
     name rfemur
     direction -0.34202 -0.939693 0   
     length 7.50166   
     axis 0 0 -20   XYZ
    dof rx ry rz
    limits (-160.0 20.0)
           (-70.0 70.0)
           (-70.0 60.0)
  end
  begin
     id 8 
     name rtibia
     direction -0.34202 -0.939693 0   
     length 7.54266   
     axis 0 0 -20   XYZ
    dof rx
    limits (-10.0 170.0)
 end
 begin
     id 9 
     name rfoot
     direction -0.114017 -0.31326 0.942798   
     length 2.34212  
     axis -90 -7.62852e-016 -20   XYZ
    dof rx rz
    limits (-45.0 90.0)
           (-20.0 70.0)
  end
  begin
     id 10 
     name rtoes
     direction -1.53557e-011 -4.21867e-011 1   
     length 1.16246   
     axis -90 -7.62852e-016 -20   XYZ
    dof rx
    limits (-90.0 20.0)
  end
  begin
     id 11 
     name lowerback
     direction -0.0228371 0.999155 -0.034167   
     length 2.0537   
     axis 0 0 0   XYZ
    dof rx ry rz
    limits (-20.0 45.0)
           (-30.0 30.0)
           (-30.0 30.0)
  end
  begin
     id 12 
     name upperback
     direction 0.0198981 0.999794 0.00389455   
     length 2.05302   
     axis 0 0 0   XYZ
    dof rx ry rz
    limits (-20.0 45.0)
           (-30.0 30.0)
           (-30.0 30.0)
  end
  begin
     id 13 
     name thorax
     direction 0.0304566 0.99935 0.0192987   
     length 2.05315   
     axis 0 0 0   XYZ
    dof rx ry rz
    limits (-20.0 45.0)
           (-30.0 30.0)
           (-30.0 30.0)
  end
  begin
     id 14 
     name lowerneck
     direction -0.0196762 0.99417 0.106017   
     length 1.82056   
     axis 0 0 0   XYZ
    dof rx ry rz
    limits (-20.0 45.0)
           (-30.0 30.0)
           (-30.0 30.0)
  end
  begin
     id 15 
     name upperneck
     direction 0.00517787 0.9802 -0.197944   
     length 1.83835   
     axis 0 0 0   XYZ
    dof rx ry rz
    limits (-20.0 45.0)
           (-30.0 30.0)
           (-30.0 30.0)
  end
  begin
     id 16
     name head
     direction 0.00211419 0.996945 -0.078081  
     length 1.85629  
     axis 0 0 0   XYZ
    dof rx ry rz
    limits (-20.0 45.0)
           (-30.0 30.0)
           (-30.0 30.0)
  end
  begin
     id 17 
     name lclavicle
     direction 0.930001 0.365811 -0.0357824  
     length 3.81961  
     axis 0 0 0   XYZ
    dof ry rz
    limits (-20.0 10.0)
           (0.0 20.0)
  end
  begin
     id 18 
     name lhumerus
     direction 1 -4.48968e-011 -3.06644e-027   
     length 5.14507   
     axis 180 -30 -90   XYZ
    dof rx ry rz
    limits (-60.0 90.0)
           (-90.0 90.0)
           (-90.0 90.0)
  end
  begin
     id 19
     name lradius
     direction 1 -4.48965e-011 9.06925e-028   
     length 3.50646   
     axis 180 -30 -90   XYZ
    dof rx
    limits (-10.0 170.0)
  end
  begin
     id 20
     name lwrist
     direction 1 -4.48957e-011 1.03922e-027   
     length 1.75323   
     axis -2.56395e-016 90 90   XYZ
    dof ry
    limits (-180.0 0.0)
 end
  begin
     id 21 
     name lhand
     direction 1 -4.48967e-011 2.08017e-027   
     length 0.629969   
     axis -1.32723e-015 90 90   XYZ
    dof rx rz
    limits (-90.0 90.0)
           (-45.0 45.0)
  end
  begin
     id 22 
     name lfingers
     direction 1 -4.49089e-011 4.20095e-027   
     length 0.507897   
     axis -2.6545e-015 90 90   XYZ
    dof rx
    limits (0.0 90.0)
  end
  begin
     id 23
     name lthumb
     direction 0.707107 -6.35001e-011 0.707107   
     length 0.729241   
     axis -90 45 5.05613e-014   XYZ
    dof rx rz
    limits (-45.0 45.0)
           (-45.0 45.0)
  end
  begin
     id 24 
     name rclavicle
     direction -0.881882 0.464123 -0.0829113   
     length 3.47515  
     axis 0 0 0   XYZ 
    dof ry rz
    limits (-10.0 20.0)
           (-20.0 0.0)
  end
  begin
     id 25 
     name rhumerus
     direction -1 -4.48961e-011 -1.55672e-027  
     length 5.232   
     axis 180 30 90   XYZ
    dof rx ry rz
    limits (-90.0 60.0)
           (-90.0 90.0)
           (-90.0 90.0)
  end
  begin
     id 26 
     name rradius
     direction -1 -4.48963e-011 6.18178e-029   
     length 3.65641   
     axis 180 30 90   XYZ
    dof rx
    limits (-10.0 170.0)
  end
  begin
     id 27 
     name rwrist
     direction -1 -4.48982e-011 1.04136e-027   
     length 1.8282   
     axis -2.56395e-016 -90 -90   XYZ
    dof ry
    limits (-180.0 0.0)
  end
  begin
     id 28
     name rhand
     direction -1 -4.48929e-011 2.07378e-027   
     length 0.656807   
     axis -1.32723e-015 -90 -90   XYZ
    dof rx rz
    limits (-90.0 90.0)
           (-45.0 45.0)
  end
  begin
     id 29
     name rfingers
     direction -1 -4.489e-011 4.13816e-027   
     length 0.529535   
     axis -2.6545e-015 -90 -90   XYZ
    dof rx
    limits (0.0 90.0)
  end
  begin
     id 30
     name rthumb
     direction -0.707107 -6.34843e-011 0.707107   
     length 0.760309   
     axis -90 -45 -5.05613e-014   XYZ
    dof rx rz
    limits (-45.0 45.0)
           (-45.0 45.0)
  end
:hierarchy
  begin
    root lhipjoint rhipjoint lowerback
    lhipjoint lfemur
    lfemur ltibia
    ltibia lfoot
    lfoot ltoes
    rhipjoint rfemur
    rfemur rtibia
    rtibia rfoot
    rfoot rtoes
    lowerback upperback
    upperback thorax
    thorax lowerneck lclavicle rclavicle
    lowerneck upperneck
    upperneck head
    lclavicle lhumerus
    lhumerus lradius
    lradius lwrist
    lwrist lhand lthumb
    lhand lfingers
    rclavicle rhumerus
    rhumerus rradius
    rradius rwrist
    rwrist rhand rthumb
    rhand rfingers
  end

#!OML:ASF H:\ManfredETheater\Project 1\Capture day 1\Session 1\subject.ASF
:FULLY-SPECIFIED
:DEGREES
16
root -9.06233 17.1616 39.4947 -172.565 14.9178 179.742
lowerback 4.50803 0.97188 -0.133773
upperback -1.76492 1.5117 3.13272
thorax -4.44536 0.841562 3.19262
lowerneck -13.537 2.81456 1.91475
upperneck 14.1611 4.23594 -3.90983
head 6.67012 1.87401 -1.15121
rclavicle 4.57205e-015 -8.74653e-015
rhumerus -32.0434 -7.47406 -77.7177
rradius 37.6783
rwrist 2.70243
rhand -18.112 -11.072
rfingers 7.12502
rthumb 8.1622 -40.8944
lclavicle 4.57205e-015 -8.74653e-015
lhumerus -31.1248 4.09728 88.0018
lradius 31.5168
lwrist -9.51824
lhand -7.10395 1.38002
lfingers 7.12502
lthumb 18.7708 30.4943
rfemur -12.8532 -4.41383 25.6298
rtibia 29.3979
rfoot -19.1909 -22.3253
rtoes -12.9955
lfemur -31.2647 -3.22054 -12.0826
ltibia 40.8834
lfoot -14.6317 -3.2638
ltoes 8.36402
17
root -9.05431 17.1599 39.4964 -172.579 14.9079 179.749
lowerback 4.50036 0.976004 -0.136982
upperback -1.75797 1.51667 3.13347
thorax -4.43417 0.843984 3.19491
lowerneck -13.5821 2.81705 1.9141
upperneck 14.1657 4.24343 -3.93667
head 6.68022 1.87458 -1.1584
rclavicle -2.32578e-014 -7.95139e-016
rhumerus -32.0573 -7.44748 -77.8134
rradius 37.6995
rwrist 2.86479
rhand -17.9596 -11.3065
rfingers 7.12502
rthumb 8.30928 -41.1231
lclavicle -2.32578e-014 -7.95139e-016
lhumerus -31.1234 4.10294 88.0287
lradius 31.5137
lwrist -9.51997
lhand -7.10964 1.37646
lfingers 7.12502
lthumb 18.7654 30.4913
rfemur -12.832 -4.38972 25.6664
rtibia 29.3999
rfoot -19.2077 -22.3426
rtoes -12.9734
lfemur -31.2578 -3.21441 -12.0506
ltibia 40.9043
lfoot -14.6489 -3.27092
ltoes 8.37314
18
root -9.04605 17.1581 39.4985 -172.588 14.8964 179.758
lowerback 4.50073 0.985958 -0.137607
upperback -1.74802 1.52929 3.13062
thorax -4.42469 0.849977 3.19126
lowerneck -13.6629 2.81585 1.92391
upperneck 14.1827 4.24348 -3.96429
head 6.70047 1.87121 -1.16784
rclavicle -2.67365e-014 -5.96354e-014
rhumerus -32.0668 -7.4483 -77.9107
rradius 37.7027
rwrist 3.0046
rhand -17.8352 -11.4826
rfingers 7.12502
rthumb 8.4294 -41.2944
lclavicle -2.67365e-014 -5.96354e-014
lhumerus -31.1043 4.08478 88.0613
lradius 31.5105
lwrist -9.5121
lhand -7.10317 1.37795
lfingers 7.12502
lthumb 18.7716 30.4922
rfemur -12.8151 -4.36316 25.7082
rtibia 29.4001
rfoot -19.2261 -22.3583
rtoes -12.9404
lfemur -31.2605 -3.19552 -12.0155
ltibia 40.9313
lfoot -14.6687 -3.29182
ltoes 8.39118
19
root -9.03775 17.1562 39.5003 -172.592 14.8915 179.773
lowerback 4.50993 1.00127 -0.134854
upperback -1.7396 1.54959 3.12841
thorax -4.42218 0.859797 3.18557
lowerneck -13.7604 2.81256 1.93852
upperneck 14.2092 4.23996 -3.99279
head 6.7267 1.86591 -1.17848
rclavicle 3.24019e-014 7.15625e-015
rhumerus -32.0827 -7.45981 -78.0069
rradius 37.6985
rwrist 3.13237
rhand -17.7188 -11.6446
rfingers 7.12502
rthumb 8.54172 -41.4519
lclavicle 3.24019e-014 7.15625e-015
lhumerus -31.083 4.05444 88.1006
lradius 31.5088
lwrist -9.49947
lhand -7.09128 1.37829
lfingers 7.12502
lthumb 18.783 30.4914
rfemur -12.7986 -4.33503 25.755
rtibia 29.3978
rfoot -19.2437 -22.3663
rtoes -12.914
lfemur -31.267 -3.16773 -11.9751
ltibia 40.9653
lfoot -14.6938 -3.31368
ltoes 8.41772
20
root -9.02957 17.1543 39.5016 -172.596 14.8968 179.791
lowerback 4.52719 1.01944 -0.132267
upperback -1.73649 1.57436 3.12928
thorax -4.43014 0.872102 3.18267
lowerneck -13.8514 2.80917 1.9521
upperneck 14.238 4.23731 -4.02306
head 6.75254 1.861 -1.18952
rclavicle -2.21645e-014 -1.66979e-014
rhumerus -32.1138 -7.46563 -78.101
rradius 37.6809
rwrist 3.22613
rhand -17.632 -11.7579
rfingers 7.12502
rthumb 8.6255 -41.5617
lclavicle -2.21645e-014 -1.66979e-014
lhumerus -31.0758 4.02818 88.1452
lradius 31.5129
lwrist -9.4893
lhand -7.08429 1.37615
lfingers 7.12502
lthumb 18.7898 30.4886
rfemur -12.7796 -4.30913 25.8014
rtibia 29.3925
rfoot -19.2572 -22.3621
rtoes -12.9021
lfemur -31.2728 -3.13311 -11.9339
ltibia 41.0066
lfoot -14.7249 -3.33073
ltoes 8.44906
